<svg xmlns="http://www.w3.org/2000/svg" width="685" height="136" fill="none" viewBox="0 0 685 136"><g fill-rule="evenodd" clip-path="url(#a)" clip-rule="evenodd"><path fill="#68c2e8" d="M393.682 41.1656h-11.956v69.1064c0 .722.226.947.949.947h14.782V90.4786c6.261 4.1978 9.651 4.4009 16.997 4.4009 3.571 0 8.001-1.3315 10.396-2.5051 2.374-1.1736 3.798-1.9635 5.741-3.7013 3.413-3.0242 4.973-5.0103 6.962-9.3886 3.322-7.3801 3.164-16.4753.068-23.8553-3.978-9.5015-14.059-15.8434-24.411-15.8434-11.255 0-14.058 3.9496-16.951 5.3037h-.045l-.023.0226h-.023l-.022.0225c-.271.1129-.543.2032-.836.2709-.452.1128-.972.2256-1.583.2934-.045-1.467-.045-2.9114 0-4.3784zm17.178 11.2393c8.137 0 14.736 6.5901 14.736 14.7149s-6.599 14.7149-14.736 14.7149-14.737-6.5901-14.737-14.7149 6.6-14.7149 14.737-14.7149M295.861 44.9346c.045-1.1735.067-2.3246 0-3.4981v-.2709h-12.906v52.1341h15.731v-26.699c0-7.538 3.164-13.4961 11.324-13.4961 5.514 0 8.181 4.5589 8.181 10.0431v30.152h16.048V64.0956c0-3.3176 1.695-6.4096 3.481-8.1474l.994-.8801c.588-.4514 1.153-.7448 1.786-1.0382 6.057-2.6857 13.222-.3611 13.222 10.3817v28.8881h15.731V63.7796c0-13.1125-7.459-24.1938-21.088-24.1938-6.419 0-10.917.8802-16.138 3.9721-1.491.8802-2.373 1.7604-3.661 2.618-3.865-2.5954-6.284-6.5901-15.731-6.5901-4.475 0-7.594.7448-9.922 1.6927-.475.2031-1.018.4288-1.583.6996-1.695.8351-3.865 2.0086-5.492 2.934z"/><path fill="#0033a0" d="M511.032 93.3223h16.048V72.5815c10.532 0 22.85 1.309 30.761-6.0485 11.098-10.2914 9.854-28.3465-1.944-36.8549-3.458-2.5052-8.792-4.5364-13.403-4.5364h-31.462v68.1806M542.019 58.16c-5.605.0903-10.6.158-15.007.1805V38.6379c4.995.0677 10.035-.3611 15.007 0 4.837.3611 8.318 4.92 8.318 9.7723s-3.526 8.9824-8.318 9.7723zM571.108 57.5055h15.731c1.492-6.4096 13.155-5.9582 16.59-3.0468 2.464 2.0989 2.283 3.5659 2.283 7.1318h-5.99c-7.006 0-11.617-.316-18.872 1.5572-16.907 4.3784-12.951 24.5549-1.786 29.7458 5.832 2.7082 13.335 2.1666 20.026-.1354.836-.2934 1.627-.6094 2.373-.9028 1.718-.7222 3.345-1.5347 4.837-2.46 1.039-.6771 1.785-1.3767 2.237-2.0538.045 1.9861.045 3.9722 0 5.9356h12.906V58.4082c0-15.7305-14.058-18.845-27.371-18.845-11.256 0-22.964 5.5294-22.964 17.8971zm25.563 23.9004c2.306-.0677 4.475-1.1059 6.012-2.8211s2.283-3.9947 2.102-6.2967c-5.786.0226-10.668.158-14.646.3837-1.966.0902-3.661 1.4218-4.181 3.3402-.52 1.8957.271 3.9269 1.944 4.9877 1.582.9253 4.497 1.0381 8.792.3837z"/><path fill="#68c2e8" d="M450.007 57.5055h14.148c1.673 0 0-1.4896 3.391-3.5208 4.475-2.7082 16.115-2.2117 16.115 4.4687v3.137h-6.283c-6.012-.0225-2.735.0226-8.205 0-8.204-.0451-21.381 3.4756-21.381 13.5188 0 5.9356.542 10.6525 4.949 14.8503 7.685 7.3123 23.213 5.1457 31.169-.158.723-.4965.881-.7899 1.943-.8802.385-.0451.882-.0451 1.492-.0225v4.4235h12.024V56.5801c0-5.8227-3.299-10.1785-7.842-12.8868-11.143-6.6804-40.345-7.0415-42.244 12.2775-.113 1.1059-.407 1.5572.701 1.5572zm18.804 15.3017c4.905-.2709 9.787-.3837 14.647-.3837.135 6.7481-4.679 9.8852-14.443 9.4338-2.464 0-4.475-1.9635-4.521-4.4235-.045-2.46 1.876-4.5138 4.34-4.6041z"/><path fill="#0033a0" d="M632.179 110.587c6.916.023 15.98.813 20.93-2.956 5.13-3.905 8.159-11.262 10.69-17.2878 2.441-5.8454 20.704-46.9659 21.201-49.1776h-16.68c-.52 1.0607-.95 2.3472-1.447 3.5884-.587 1.4444-.949 2.3698-1.537 3.8142-1.062 2.6857-2.011 5.0103-3.051 7.6283l-6.555 15.1211c-.045-2.1892-4.588-12.3677-5.673-15.076-.859-2.1215-5.537-13.1802-5.967-15.076H626.8c.452 1.9635 14.601 34.3272 15.211 35.7039 1.356 3.0468 2.418 5.7551 3.775 8.8019.361.8125.587 1.3767.971 2.1892.995 2.144-.791 4.8523-1.898 6.8158-.61 1.0607-2.193 2.7308-3.323 2.9791-1.107.2257-4.859.0677-6.238.0677-1.582 0-2.554-.0903-3.119.0451z"/><path fill="#68c2e8" d="M217.838 69.1284c0 7.854 2.328 14.5795 6.216 18.6193 6.532 6.7933 14.171 7.1318 23.371 7.1318 5.853 0 14.035-2.776 17.833-7.3123 4.068-4.8523 6.057-10.6074 6.057-19.3867V41.1656h-15.731v26.383c0 10.5397-3.436 13.8121-11.957 13.8121-7.843 0-10.058-5.6873-10.058-13.4961v-26.699h-15.731zM191.1 70.3923c0 10.8331-8.973 9.1178-17.923 9.1178v13.8122c9.922 0 19.754.9479 27.303-6.0485 3.752-3.4756 6.69-9.1178 6.69-16.2496V25.1417h-16.047v45.228z"/><path fill="#86e1d0" d="m76.4627 99.7996-.0904.0902-.2034.4062-.0904.113-.0904.203-.0905.09-.0904.203-.0904.091-.0904.09v.09l-.0904.113-.113.09-.0904.113v.09l-.0904.091-.0904.09-.0904.09-.2034.294-.0905.09-.0904.113-.0904.09-.113.09-.0904.091-.0904.09-.0904.09-.0904.09-.0904.113-.0904.091-.0904.112-.0904.091-.1131.09-.0904.09-.113.091-.0904.09-.0904.09-.0904.09-.0904.113h-.0904l-.0904.09-.113.091-.0904.09-.1131.09-.2034.091-.0904.09-.2034.09-.0904.09-.0904.113-.2034.091-.0904.112-.2035.091-.0904.09-.2034.09-.2034.09-.0904.091-.2034.09-.2034.113-.2035.09-.2034.113-.2034.09-.2034.091-.2034.09-.2035.09c-.2034.181-.1582.181-.4972.203l-.2034.091s.1808.09-.2938.09c-.1131.113.1808.113-.2939.113-.113.112.1808.09-.2938.09-.113.113.1808.09-.2938.09 0 0-.0452 0-.0678.045 0 .023-.0452.023-.0678.023-.1357.022-.1357.022-.2713.022-.2712.181-.4972.204-.8136.204-.113.067 0 .067-.2035.09h-.2938s-.0678 0-.0678.022c0 .023-.0452.023-.0678.023-.7233.248-2.7348.293-3.5259.248-.113 0-.1808 0-.2712-.022-.2261-.045-.0904 0-.2261-.091-.4972 0-.6554-.022-1.0397-.09l-.9944-.226c-.2261 0-.3391 0-.5651-.045 0 0-.2034-.045-.226-.067-.2486-.091-.0904-.023-.2034-.091h-.2939c-.2034-.045-.113-.022-.2034-.09h-.2034c-.1808-.045-.113-.023-.2034-.09-.2034 0-.1808 0-.3616-.045-.0226 0-.1131-.046-.1583-.046-.1356-.067-.113-.067-.2034-.112h-.2034c-.1808-.045-.113-.023-.2034-.091h-.2034c-.1808-.045-.113-.022-.2034-.09h-.2035c-.1808-.045-.113-.022-.2034-.09l-.8589-.158s-.113-.045-.1356-.068c0 0-.0452-.022-.0678-.045 0 0-.0452-.023-.0678-.045h-.2034c-.1808-.045-.113-.023-.2034-.09h-.2034c-.1809-.046-.1131-.023-.2035-.091l-.8588-.158s-.113-.045-.1356-.067c0 0-.0453-.023-.0679-.046 0 0-.0452-.022-.0678-.045h-.113v.113c.1356 1.557 0 15.595 0 17.536v10.856c0 1.896 1.7404 1.896 2.4636 1.241.2035-.18.3391-.361.5651-.564l9.6059-9.073c.1808-.18.3164-.338.5198-.496.6329-.542 1.2431-1.151 1.8082-1.535.9041-.587 1.9437-1.061 3.0512-1.422 1.0849-.361 2.2829-.677 3.5486-.812 4.656-.519 7.1422.18 11.6174 1.151l7.1649 1.67c2.3732.587 4.7916 1.061 7.1196 1.625 1.2428.293 12.9958 3.159 14.3978 3.159 3.774 0 6.916-1.173 9.764-3.43 2.531-2.009 4.543-4.514 5.695-7.606.95-2.527.995-4.265.995-7.718 0-19.0033-.068-38.0966 0-57.077 0-2.9565-.995-5.8453-2.87-8.0797-.588-.677-1.56-1.6023-2.261-2.0989-2.486-1.7378-5.085-2.2343-8.091-2.9791-6.894-1.7152-13.946-3.7238-20.8393-5.4616L82.6331 30.784c-.6555-.158-1.1075-.2934-1.763-.474l-1.763-.4739v53.8267c0 2.7985.1809 6.229-.0904 8.9373-.2938 3.0468-1.1301 4.6943-2.1472 6.7932z"/><path fill="#68c2e8" d="M51.9847 105.983v-.248c-.1808-.451-.0226-48.1392-.0226-53.1721 0-3.8141-.339-9.2081.6328-12.5934 1.0171-3.5433 2.7123-5.8228 5.2663-8.1248 2.0568-1.8507 5.6505-3.5659 9.4703-3.8141 4.1135-.2709 7.6621 1.309 11.3688 2.0763V3.79159c0-.67707.0452-1.46698 0-2.14404-.0226-.6545-.4294-1.128447-.9041-1.331567-.113-.045137-.2034-.067706-.3164-.090275h-.5199C76.1011.38369 75.423 1.30901 74.971 1.78296L64.8678 11.3747c-.3842.3837-.8136.6545-1.2657.9479-1.7177 1.151-4.3848 1.9635-6.532 2.2118-.6328.0677-1.4239.0677-2.0567.158-1.1301.1805-4.9047-.316-5.967-.5417-3.5259-.6996-7.3004-1.7378-10.7359-2.46L24.026 8.41821c-1.1301-.24826-2.3507-.56422-3.526-.85762-4.0909-1.0156-6.9162-.94789-10.82633 1.08331-2.07939 1.0833-3.36771 2.2795-4.94985 3.8818-2.2376 2.2569-3.729337 5.7551-4.226582 8.9599-.22602 1.4218-.067806 44.0996-.067806 48.1845v13.0674c0 6.387 3.932758 10.7428 9.741468 12.2775l10.3743 2.7082c1.198.2934 2.4185.5868 3.5486.9254l6.9162 1.8284c6.9162 1.715 14.0585 3.701 20.9747 5.484z"/><path fill="#1a25ab" d="m52.0073 105.735.113.158c.2938 0 .3842.023.6103.09.1582.046.0904 0 .226.068.0226 0 .113.045.1356.068 0 0 .0452.022.0678.045 0 0 .0452.023.0678.045h.2034c.1808.045.113.023.2034.09h.2035c.1808.046.113.023.2034.091.2938 0 .3842.022.6102.09.1583.045.0904 0 .2261.068.0226 0 .113.045.1356.067 0 0 .0452.023.0678.045 0 0 .0452.023.0678.046h.2034c.1808.045.113.022.2034.09h.2034c.1809.045.113.022.2035.09h.2034c.1808.045.113.023.2034.09.2034 0 .1808 0 .3616.046.0226 0 .113.045.1582.045.1357.067.1131.067.2035.113h.2034c.1808.045.113.022.2034.09h.2938c.2034.045.113.022.2034.09l1.0171.203c.2487 0 1.8082.158 2.0342.294.7007 0 1.4465.022 2.1246 0 .6781 0 1.3335-.203 2.0342-.203.113-.068 0-.068.2034-.091h.2938l.1356-.067s.2261-.068.2261-.091c.2486-.067.1808-.045.452-.045 0 0 .0452-.068.0678-.045 0 0 .0452-.023.0678-.023.1356-.022.1356-.022.2712-.022.1131-.113-.1808-.09.2939-.09.113-.113-.1808-.091.2938-.091.113-.113-.1808-.113.2938-.113.113-.112-.1808-.09.2938-.09l.2035-.09c.2034-.181.1582-.181.4972-.203l.2034-.09.2035-.091.2034-.09.2034-.09.2034-.113.2034-.09.2034-.113.2035-.091.0904-.09.2034-.09.2034-.09.0904-.091.2034-.09.0904-.113.2035-.09.0904-.113.0904-.09.2034-.09.0904-.091.2034-.09.113-.09.0904-.091.1131-.09.0904-.09h.0904l.0904-.113.0904-.09.0904-.091.0904-.09.113-.09.0904-.09.113-.091.0904-.09.0904-.113.0905-.09.0904-.113.0904-.09.0904-.09.0904-.091.0904-.09.113-.09.0904-.09.0904-.113.0904-.091.2034-.293.0905-.09.0904-.091.0904-.09v-.09l.0904-.113.113-.09.0904-.113v-.09l.0904-.091.0904-.09.0904-.203.0904-.09.0904-.203.0904-.113.2035-.407.0904-.09c1.0397-2.0761 1.8533-3.7462 2.1472-6.793.2486-2.7083.0904-6.1387.0904-8.9373V30.0843c-3.7068-.7673-7.2779-2.3472-11.3689-2.0763-3.8197.2482-7.4134 1.9635-9.4702 3.8141-2.554 2.302-4.2492 4.5815-5.2663 8.1248-.9945 3.3853-.6328 8.7793-.6328 12.5934 0 5.0329-.1583 52.7207.0452 53.1727z"/><path fill="#69c3e8" stroke="#69c3e8" stroke-miterlimit="2.61" stroke-width=".22" d="M78.7455 1.55724C78.6551.993014 78.2709.519068 77.7284.338517c-.5424-.180551-1.1301-.067706-1.5595.315964C68.4164 8.01193 64.5514 11.6907 64.5514 11.6907c-4.3848 3.4756-10.8038 4.0398-19.2569 1.6701-17.946-4.13015-26.8964-6.20648-26.8964-6.20648C9.44765 6.45468 1.55954 12.8868.474642 21.7564c-.293826 20.2668-.293826 40.5111 0 60.7779C.22602 88.2894 4.04576 93.4351 9.60586 94.8795 38.0844 102.282 52.3237 105.961 52.3237 105.961c10.1935 3.385 17.8104 1.918 22.9185-4.379 2.3958-3.5203 3.5259-6.9508 3.4355-10.2684.0678-59.0627.0904-88.58278.0904-88.58278V1.53467z"/><path fill="#86e1d0" stroke="#86e1d0" stroke-miterlimit="2.61" stroke-width=".22" d="M51.9847 134.398c.0904.564.4746 1.038 1.0171 1.218.5424.181 1.1301.068 1.5595-.316 7.7525-7.357 11.6175-11.036 11.6175-11.036 4.3848-3.475 10.8037-4.04 19.2569-1.67 17.9463 4.13 26.8963 6.207 26.8963 6.207 8.928.699 16.816-5.756 17.901-14.625.294-20.2444.294-40.5112 0-60.7555.249-5.755-3.571-10.9007-9.131-12.3452C92.6232 33.6728 78.3839 29.994 78.3839 29.994c-10.1936-3.3853-17.8104-1.9183-22.9185 4.3784-2.3958 3.5207-3.5259 6.9512-3.4355 10.2688-.0678 59.0628-.0904 88.5828-.0904 88.5828v1.196z"/><path fill="#1a25ab" stroke="#1a25ab" stroke-miterlimit="2.61" stroke-width=".5" d="M52.6402 105.735c10.1935 3.385 17.8104 1.918 22.9184-4.378 2.3958-3.521 3.5259-6.9514 3.4355-10.2691.0226-26.2701-.5876-46.6273-.565-61.2067-.1808-.0452-.5199-.1355-.5199-.1355-10.1935-3.3853-16.9741-1.9183-22.0596 4.3784-2.3958 3.5207-3.5259 6.9512-3.4355 10.2688-.0226 26.2702-.0452 46.6725-.0678 61.2741.1808.046.2939.068.2939.068Z"/></g><defs><clipPath id="a"><path fill="#fff" d="M0 0h685v136H0z"/></clipPath></defs></svg>